<mxfile host="app.diagrams.net" modified="2021-04-22T08:48:49.451Z" agent="5.0 (Windows)" etag="DN_a7LCggrgsUDjHEMV5" version="14.6.3" type="github">
  <diagram id="OSkddSnpVl8k1uT1pf2J" name="Page-1">
    <mxGraphModel dx="1769" dy="583" grid="1" gridSize="10" guides="1" tooltips="1" connect="1" arrows="1" fold="1" page="1" pageScale="1" pageWidth="827" pageHeight="1169" math="0" shadow="0">
      <root>
        <mxCell id="0" />
        <mxCell id="1" parent="0" />
        <mxCell id="mwQcFGBg6fSToFTpqCqU-48" value="" style="rounded=0;whiteSpace=wrap;html=1;" parent="1" vertex="1">
          <mxGeometry x="126" y="134" width="210" height="200" as="geometry" />
        </mxCell>
        <mxCell id="mwQcFGBg6fSToFTpqCqU-34" value="" style="rounded=0;whiteSpace=wrap;html=1;" parent="1" vertex="1">
          <mxGeometry x="-340" y="470" width="780" height="200" as="geometry" />
        </mxCell>
        <mxCell id="mwQcFGBg6fSToFTpqCqU-49" style="edgeStyle=orthogonalEdgeStyle;rounded=0;orthogonalLoop=1;jettySize=auto;html=1;" parent="1" source="mwQcFGBg6fSToFTpqCqU-26" target="mwQcFGBg6fSToFTpqCqU-48" edge="1">
          <mxGeometry relative="1" as="geometry" />
        </mxCell>
        <mxCell id="mwQcFGBg6fSToFTpqCqU-26" value="" style="rounded=0;whiteSpace=wrap;html=1;" parent="1" vertex="1">
          <mxGeometry x="-329" y="19" width="390" height="430" as="geometry" />
        </mxCell>
        <mxCell id="mwQcFGBg6fSToFTpqCqU-15" value="" style="rounded=0;whiteSpace=wrap;html=1;" parent="1" vertex="1">
          <mxGeometry x="-320" y="219" width="370" height="220" as="geometry" />
        </mxCell>
        <mxCell id="mwQcFGBg6fSToFTpqCqU-3" value="" style="rounded=1;whiteSpace=wrap;html=1;" parent="1" vertex="1">
          <mxGeometry x="-260" y="29" width="290" height="70" as="geometry" />
        </mxCell>
        <mxCell id="mwQcFGBg6fSToFTpqCqU-7" value="&lt;div align=&quot;left&quot;&gt;eg: &lt;br&gt;&lt;/div&gt;&lt;div align=&quot;left&quot;&gt;1、运算符号关联（大于 等于 小于 排他 非等）&lt;/div&gt;&lt;div align=&quot;left&quot;&gt;2、名词解析关联&lt;/div&gt;&lt;div align=&quot;left&quot;&gt;3、多条件并列关系解析&lt;/div&gt;&lt;div align=&quot;left&quot;&gt;4、规则标识&lt;/div&gt;&lt;div align=&quot;left&quot;&gt;5、核心：确定考核维度 + 标准值 + 规则逻辑&lt;br&gt;&lt;/div&gt;" style="text;html=1;strokeColor=none;fillColor=none;align=left;verticalAlign=middle;whiteSpace=wrap;rounded=0;" parent="1" vertex="1">
          <mxGeometry x="-234" y="99" width="210" height="120" as="geometry" />
        </mxCell>
        <mxCell id="mwQcFGBg6fSToFTpqCqU-51" style="edgeStyle=orthogonalEdgeStyle;rounded=0;orthogonalLoop=1;jettySize=auto;html=1;entryX=0.731;entryY=0.01;entryDx=0;entryDy=0;entryPerimeter=0;" parent="1" source="mwQcFGBg6fSToFTpqCqU-8" target="mwQcFGBg6fSToFTpqCqU-34" edge="1">
          <mxGeometry relative="1" as="geometry" />
        </mxCell>
        <mxCell id="mwQcFGBg6fSToFTpqCqU-8" value="Drools 模板公式" style="rounded=1;whiteSpace=wrap;html=1;" parent="1" vertex="1">
          <mxGeometry x="171" y="239" width="120" height="60" as="geometry" />
        </mxCell>
        <mxCell id="mwQcFGBg6fSToFTpqCqU-9" value="维度字典" style="rounded=1;whiteSpace=wrap;html=1;" parent="1" vertex="1">
          <mxGeometry x="-290" y="229" width="120" height="60" as="geometry" />
        </mxCell>
        <mxCell id="mwQcFGBg6fSToFTpqCqU-12" value="运算逻辑字典" style="rounded=1;whiteSpace=wrap;html=1;" parent="1" vertex="1">
          <mxGeometry x="-290" y="299" width="120" height="60" as="geometry" />
        </mxCell>
        <mxCell id="mwQcFGBg6fSToFTpqCqU-13" value="标准值字典" style="rounded=1;whiteSpace=wrap;html=1;" parent="1" vertex="1">
          <mxGeometry x="-290" y="369" width="120" height="60" as="geometry" />
        </mxCell>
        <mxCell id="mwQcFGBg6fSToFTpqCqU-25" value="模板合成" style="rounded=1;whiteSpace=wrap;html=1;" parent="1" vertex="1">
          <mxGeometry x="103.5" y="490" width="310" height="80" as="geometry" />
        </mxCell>
        <mxCell id="mwQcFGBg6fSToFTpqCqU-27" value="词义分析引擎" style="text;html=1;strokeColor=none;fillColor=none;align=center;verticalAlign=middle;whiteSpace=wrap;rounded=0;" parent="1" vertex="1">
          <mxGeometry x="-440" y="33" width="80" height="17" as="geometry" />
        </mxCell>
        <mxCell id="mwQcFGBg6fSToFTpqCqU-28" value="模板重新加载" style="rounded=1;whiteSpace=wrap;html=1;" parent="1" vertex="1">
          <mxGeometry x="-224" y="490" width="310" height="80" as="geometry" />
        </mxCell>
        <mxCell id="mwQcFGBg6fSToFTpqCqU-29" value="DRT规则模板" style="rounded=1;whiteSpace=wrap;html=1;" parent="1" vertex="1">
          <mxGeometry x="-224" y="580" width="190" height="70" as="geometry" />
        </mxCell>
        <mxCell id="mwQcFGBg6fSToFTpqCqU-30" value="DRL 规则文件库" style="rounded=1;whiteSpace=wrap;html=1;" parent="1" vertex="1">
          <mxGeometry x="-30" y="580" width="260" height="70" as="geometry" />
        </mxCell>
        <mxCell id="mwQcFGBg6fSToFTpqCqU-31" value="版本管理器" style="rounded=1;whiteSpace=wrap;html=1;" parent="1" vertex="1">
          <mxGeometry x="233.5" y="580" width="180" height="70" as="geometry" />
        </mxCell>
        <mxCell id="mwQcFGBg6fSToFTpqCqU-35" value="规则引擎" style="text;html=1;strokeColor=none;fillColor=none;align=center;verticalAlign=middle;whiteSpace=wrap;rounded=0;" parent="1" vertex="1">
          <mxGeometry x="-400" y="470" width="60" height="20" as="geometry" />
        </mxCell>
        <mxCell id="mwQcFGBg6fSToFTpqCqU-37" value="药品库" style="rounded=1;whiteSpace=wrap;html=1;" parent="1" vertex="1">
          <mxGeometry x="-130" y="229" width="120" height="60" as="geometry" />
        </mxCell>
        <mxCell id="mwQcFGBg6fSToFTpqCqU-38" value="费用库" style="rounded=1;whiteSpace=wrap;html=1;" parent="1" vertex="1">
          <mxGeometry x="-130" y="299" width="120" height="60" as="geometry" />
        </mxCell>
        <mxCell id="mwQcFGBg6fSToFTpqCqU-39" value="行为库" style="rounded=1;whiteSpace=wrap;html=1;" parent="1" vertex="1">
          <mxGeometry x="-130" y="369" width="120" height="60" as="geometry" />
        </mxCell>
        <mxCell id="mwQcFGBg6fSToFTpqCqU-41" value="分词" style="rounded=0;whiteSpace=wrap;html=1;" parent="1" vertex="1">
          <mxGeometry x="-244" y="46.5" width="84" height="35" as="geometry" />
        </mxCell>
        <mxCell id="mwQcFGBg6fSToFTpqCqU-43" value="字典映射" style="rounded=0;whiteSpace=wrap;html=1;" parent="1" vertex="1">
          <mxGeometry x="-150" y="46.5" width="84" height="35" as="geometry" />
        </mxCell>
        <mxCell id="mwQcFGBg6fSToFTpqCqU-44" value="公式编译" style="rounded=0;whiteSpace=wrap;html=1;" parent="1" vertex="1">
          <mxGeometry x="-60" y="46.5" width="84" height="35" as="geometry" />
        </mxCell>
        <mxCell id="mwQcFGBg6fSToFTpqCqU-58" style="edgeStyle=orthogonalEdgeStyle;rounded=0;orthogonalLoop=1;jettySize=auto;html=1;entryX=0;entryY=0.5;entryDx=0;entryDy=0;" parent="1" source="mwQcFGBg6fSToFTpqCqU-45" target="mwQcFGBg6fSToFTpqCqU-54" edge="1">
          <mxGeometry relative="1" as="geometry" />
        </mxCell>
        <mxCell id="mwQcFGBg6fSToFTpqCqU-59" style="edgeStyle=orthogonalEdgeStyle;rounded=0;orthogonalLoop=1;jettySize=auto;html=1;" parent="1" source="mwQcFGBg6fSToFTpqCqU-45" target="mwQcFGBg6fSToFTpqCqU-55" edge="1">
          <mxGeometry relative="1" as="geometry" />
        </mxCell>
        <mxCell id="mwQcFGBg6fSToFTpqCqU-45" value="未生成公式的数据" style="rounded=1;whiteSpace=wrap;html=1;" parent="1" vertex="1">
          <mxGeometry x="171" y="164" width="120" height="60" as="geometry" />
        </mxCell>
        <mxCell id="mwQcFGBg6fSToFTpqCqU-54" value="手动自定义公式" style="rounded=1;whiteSpace=wrap;html=1;" parent="1" vertex="1">
          <mxGeometry x="400" y="101" width="120" height="60" as="geometry" />
        </mxCell>
        <mxCell id="mwQcFGBg6fSToFTpqCqU-55" value="完善分析引擎" style="rounded=1;whiteSpace=wrap;html=1;" parent="1" vertex="1">
          <mxGeometry x="400" y="212" width="120" height="60" as="geometry" />
        </mxCell>
        <mxCell id="mwQcFGBg6fSToFTpqCqU-60" value="规则自我优化" style="rounded=1;whiteSpace=wrap;html=1;" parent="1" vertex="1">
          <mxGeometry x="-320" y="490" width="80" height="160" as="geometry" />
        </mxCell>
      </root>
    </mxGraphModel>
  </diagram>
</mxfile>
